<svg width="25" height="24" viewBox="0 0 25 24" fill="none" xmlns="http://www.w3.org/2000/svg">
<path d="M19.6 7.34001L16.86 4.60001C16.5024 4.26411 16.0338 4.07137 15.5433 4.05846C15.0529 4.04556 14.5748 4.21338 14.2 4.53001L5.2 13.53C4.87677 13.856 4.67551 14.2832 4.63 14.74L4.2 18.91C4.18653 19.0565 4.20554 19.2041 4.25566 19.3424C4.30579 19.4807 4.38581 19.6062 4.49 19.71C4.58344 19.8027 4.69426 19.876 4.8161 19.9258C4.93793 19.9755 5.0684 20.0008 5.2 20H5.29L9.46 19.62C9.9168 19.5745 10.344 19.3732 10.67 19.05L19.67 10.05C20.0193 9.68098 20.2081 9.18852 20.195 8.68055C20.1819 8.17257 19.9679 7.69052 19.6 7.34001ZM9.28 17.62L6.28 17.9L6.55 14.9L12.2 9.32001L14.9 12.02L9.28 17.62ZM16.2 10.68L13.52 8.00001L15.47 6.00001L18.2 8.73001L16.2 10.68Z" fill="black"/>
</svg>